<?xml version="1.0" standalone="no"?><!DOCTYPE svg PUBLIC "-//W3C//DTD SVG 1.1//EN" "http://www.w3.org/Graphics/SVG/1.1/DTD/svg11.dtd"><svg t="1505375796369" class="icon" style="" viewBox="0 0 1024 1024" version="1.1" xmlns="http://www.w3.org/2000/svg" p-id="1055" xmlns:xlink="http://www.w3.org/1999/xlink" width="48" height="48"><defs><style type="text/css"></style></defs><path d="M798.272 167.424c-13.44-11.264-33.664-9.408-45.056 4.096-11.264 13.568-9.408 33.792 4.16 45.056C845.44 289.856 896 397.568 896 512c0 211.776-172.224 384-384 384s-384-172.224-384-384c0-114.496 50.56-222.144 138.688-295.424C280.256 205.312 282.112 185.152 270.784 171.52 259.456 158.016 239.36 156.032 225.728 167.424 122.944 252.864 64 378.496 64 512c0 246.976 200.96 448 448 448 246.976 0 448-201.024 448-448C960 378.496 901.056 252.864 798.272 167.424zM512 512c17.664 0 32-14.336 32-32l0-384C544 78.336 529.664 64 512 64S480 78.336 480 96l0 384C480 497.664 494.336 512 512 512z" p-id="1056" fill="#179DF4"></path></svg>